<svg width="32" height="32" viewBox="0 0 32 32" fill="none" xmlns="http://www.w3.org/2000/svg">
<path fill-rule="evenodd" clip-rule="evenodd" d="M20.4935 18.1955C20.619 17.9392 20.9196 17.8065 21.1821 17.9183C21.4273 18.0227 21.5487 18.3027 21.4356 18.544C20.4783 20.5859 18.4043 22 16 22C12.6863 22 10 19.3137 10 16C10 12.6863 12.6863 10 16 10C17.7841 10 19.3863 10.7787 20.4854 12.0147L22.0001 10.5V14.5H18.0001L19.7768 12.7233C18.8601 11.6676 17.508 11 16 11C13.2386 11 11 13.2386 11 16C11 18.7614 13.2386 21 16 21C17.9738 21 19.6805 19.8563 20.4935 18.1955Z" fill="#050505"/>
</svg>
