<svg width="28" height="34" viewBox="0 0 28 34" fill="none" xmlns="http://www.w3.org/2000/svg">
<path fill-rule="evenodd" clip-rule="evenodd" d="M13.7501 1C13.8726 1 14.1182 1.11235 14.3629 1.60178C14.5469 1.96973 14.6839 2.47252 14.7312 3.05215C14.0788 2.99372 13.4221 2.99044 12.7697 3.04231C12.8178 2.46682 12.9543 1.96765 13.1372 1.60178C13.3819 1.11235 13.6275 1 13.7501 1ZM11.7593 3.16756C11.7979 2.40507 11.9691 1.70188 12.2428 1.15456C12.5407 0.558832 13.0447 0 13.7501 0C14.4554 0 14.9594 0.558833 15.2573 1.15456C15.5334 1.70667 15.7053 2.41739 15.7418 3.18759C19.3161 3.82776 22.6204 6.15768 24.1823 10.1739C24.6862 11.4696 24.9472 12.8539 24.9472 14.2447V24.2682C24.9472 24.9323 25.3317 25.5363 25.9334 25.8174C28.5598 27.0444 27.6852 30.9825 24.7864 30.9825H17.2129C16.9703 32.6777 15.5124 33.9809 13.7501 33.9809C11.9878 33.9809 10.5298 32.6777 10.2872 30.9825H2.71372C-0.185135 30.9825 -1.05967 27.0444 1.56671 25.8174C2.16837 25.5363 2.55288 24.9323 2.55288 24.2682V14.1423C2.55288 12.8214 2.78701 11.5109 3.24441 10.2716C4.76598 6.14918 8.12181 3.78239 11.7593 3.16756ZM23.2503 10.5363C19.8506 1.79441 7.4238 1.83625 4.18255 10.6179C3.76606 11.7463 3.55288 12.9395 3.55288 14.1423V24.2682C3.55288 25.3207 2.94351 26.2779 1.98997 26.7234C0.332767 27.4976 0.884586 29.9825 2.71372 29.9825H24.7864C26.6155 29.9825 27.1673 27.4976 25.5101 26.7234C24.5566 26.2779 23.9472 25.3207 23.9472 24.2682V14.2447C23.9472 12.9785 23.7095 11.717 23.2503 10.5363ZM13.7501 32.9809C12.5415 32.9809 11.5334 32.1227 11.3018 30.9825H16.1983C15.9667 32.1227 14.9586 32.9809 13.7501 32.9809Z" fill="#868686"/>
</svg>
