<svg width="23" height="35" viewBox="0 0 23 35" fill="none" xmlns="http://www.w3.org/2000/svg">
<path fill-rule="evenodd" clip-rule="evenodd" d="M13 11.5C13 12.3284 12.3284 13 11.5 13C10.6716 13 10 12.3284 10 11.5C10 10.6716 10.6716 10 11.5 10C12.3284 10 13 10.6716 13 11.5ZM13 17.5C13 18.3284 12.3284 19 11.5 19C10.6716 19 10 18.3284 10 17.5C10 16.6716 10.6716 16 11.5 16C12.3284 16 13 16.6716 13 17.5ZM11.5 25C12.3284 25 13 24.3284 13 23.5C13 22.6716 12.3284 22 11.5 22C10.6716 22 10 22.6716 10 23.5C10 24.3284 10.6716 25 11.5 25Z" fill="#050505"/>
</svg>
