<svg width="12" height="12" viewBox="0 0 12 12" fill="none" xmlns="http://www.w3.org/2000/svg">
<path fill-rule="evenodd" clip-rule="evenodd" d="M8.18896 3.34306V4.3714e-08L7.18896 0V1.17197H0V2.17197H7.18896V3.34306H8.18896ZM5.17964 8.02383V9.19521H0V10.1952H5.17964V11.3669H6.17964V8.02383L5.17964 8.02383ZM4.6812 6.18506L11.9967 6.18506L11.9967 5.18506L4.6812 5.18506V6.18506ZM11.9999 2.17197L10.0749 2.17197V1.17197L11.9999 1.17197L11.9999 2.17197ZM8.02925 10.1952H12.0001V9.19521H8.02925V10.1952ZM1.81694 6.1956H0V5.1956H1.81694V4.02422H2.81694L2.81694 7.36728H1.81694V6.1956Z" fill="#2E2E2E"/>
</svg>
