<svg width="41" height="43" viewBox="0 0 41 43" fill="none" xmlns="http://www.w3.org/2000/svg">
<path fill-rule="evenodd" clip-rule="evenodd" d="M10.2028 10.1504C10.4511 9.93095 10.8303 9.95442 11.0497 10.2028L20.6019 21.0151C20.8024 21.242 20.8024 21.5827 20.6019 21.8096L11.0497 32.622C10.8303 32.8704 10.4511 32.8938 10.2028 32.6744C9.95442 32.455 9.93095 32.0759 10.1504 31.8275L19.3516 21.4124L10.1504 10.9973C9.93095 10.7489 9.95442 10.3697 10.2028 10.1504Z" fill="black"/>
<path fill-rule="evenodd" clip-rule="evenodd" d="M20.9901 10.1217C21.2543 9.92166 21.6306 9.97364 21.8306 10.2378L30.0183 21.0502C30.1805 21.2644 30.1805 21.5604 30.0183 21.7746L21.8306 32.587C21.6306 32.8512 21.2543 32.9032 20.9901 32.7031C20.7259 32.5031 20.6739 32.1268 20.874 31.8626L28.7873 21.4124L20.874 10.9622C20.6739 10.6981 20.7259 10.3217 20.9901 10.1217Z" fill="black"/>
</svg>
