<svg width="11" height="10" viewBox="0 0 11 10" fill="none" xmlns="http://www.w3.org/2000/svg">
<path fill-rule="evenodd" clip-rule="evenodd" d="M6.82505 0.639688C6.71695 0.522985 6.53167 0.520039 6.41982 0.633246L2.57914 4.52049V9.10256H8.37109C8.49715 9.10256 8.60751 9.01905 8.64025 8.8989L9.6942 5.0302C9.74182 4.85542 9.60842 4.68365 9.42505 4.68365H7.33164C6.79465 4.68365 6.39687 4.19115 6.51652 3.67443L7.10788 1.12071C7.12827 1.03269 7.1036 0.940406 7.04188 0.873773L6.82505 0.639688ZM2.02172 9.10256V4.68365H1.23336C1.07943 4.68365 0.954643 4.80682 0.954643 4.95876V8.82746C0.954643 8.97939 1.07943 9.10256 1.23336 9.10256H2.02172ZM2.18293 4.13344L6.02075 0.249093C6.3563 -0.0905269 6.91215 -0.0816902 7.23645 0.268421L7.45327 0.502505C7.63843 0.702406 7.71244 0.979261 7.6513 1.24331L7.05994 3.79703C7.02005 3.96927 7.15264 4.13344 7.33164 4.13344H9.42505C9.97515 4.13344 10.3754 4.64873 10.2325 5.17308L9.17855 9.04178C9.08035 9.40224 8.74926 9.65278 8.37109 9.65278H1.23336C0.771569 9.65278 0.397217 9.28327 0.397217 8.82746V4.95876C0.397217 4.50295 0.77157 4.13344 1.23336 4.13344H2.18293Z" fill="black"/>
</svg>
