<svg width="35" height="35" viewBox="0 0 35 35" fill="none" xmlns="http://www.w3.org/2000/svg">
<path fill-rule="evenodd" clip-rule="evenodd" d="M19.7743 10.994C19.6099 10.8127 19.3281 10.8081 19.1581 10.984L13.3179 17.0246V24.145H22.1252C22.3169 24.145 22.4847 24.0152 22.5345 23.8285L24.1371 17.8167C24.2095 17.5451 24.0067 17.2782 23.7279 17.2782H20.5446C19.728 17.2782 19.1232 16.5129 19.3051 15.7099L20.2043 11.7415C20.2353 11.6048 20.1978 11.4614 20.104 11.3578L19.7743 10.994ZM12.4702 24.145V17.2782H11.2714C11.0374 17.2782 10.8476 17.4696 10.8476 17.7057V23.7175C10.8476 23.9536 11.0374 24.145 11.2714 24.145H12.4702ZM12.7154 16.4232L18.5512 10.3871C19.0615 9.85933 19.9067 9.87306 20.3998 10.4171L20.7295 10.7809C21.0111 11.0915 21.1236 11.5217 21.0307 11.932L20.1314 15.9004C20.0708 16.1681 20.2724 16.4232 20.5446 16.4232H23.7279C24.5643 16.4232 25.1729 17.2239 24.9557 18.0387L23.353 24.0505C23.2037 24.6107 22.7002 25 22.1252 25H11.2714C10.5692 25 10 24.4258 10 23.7175V17.7057C10 16.9974 10.5692 16.4232 11.2714 16.4232H12.7154Z" fill="black"/>
</svg>
