<svg width="15" height="14" viewBox="0 0 15 14" fill="none" xmlns="http://www.w3.org/2000/svg">
<path fill-rule="evenodd" clip-rule="evenodd" d="M0.465677 0.319336C0.20849 0.319336 0 0.526349 0 0.781712V7.83449C0 8.02144 0.113389 8.19 0.287322 8.2616C0.461255 8.33321 0.661501 8.29377 0.794734 8.16166L1.77574 7.18894V12.8035C1.77574 12.9769 1.8735 13.1358 2.02894 13.2149C2.18438 13.294 2.37136 13.2802 2.5132 13.1789L5.79791 10.8348H13.784C14.0412 10.8348 14.2497 10.6278 14.2497 10.3724V3.42649C14.2497 3.17112 14.0412 2.96411 13.784 2.96411H12.4739V0.781712C12.4739 0.526349 12.2654 0.319336 12.0082 0.319336H0.465677ZM11.5426 2.96411V1.24409H0.931353V6.71929L1.77574 5.88204V3.42649C1.77574 3.17112 1.98423 2.96411 2.24142 2.96411H11.5426ZM2.70709 11.9017V3.88886H13.3183V9.91002H5.64792C5.55039 9.91002 5.45533 9.94043 5.37614 9.99694L2.70709 11.9017ZM11.3356 6.31994H4.34013V5.39519H11.3356V6.31994ZM4.34013 8.40372H11.3356V7.47897H4.34013V8.40372Z" fill="#065FD4"/>
</svg>
