<svg width="24" height="20" viewBox="0 0 24 20" fill="none" xmlns="http://www.w3.org/2000/svg">
<path fill-rule="evenodd" clip-rule="evenodd" d="M0 0.5C0 0.223858 0.223858 0 0.5 0H23.016C23.2921 0 23.516 0.223858 23.516 0.5V14.1461C23.516 14.4222 23.2921 14.6461 23.016 14.6461H7.30608L0.791818 19.3282C0.639517 19.4376 0.438763 19.4527 0.271865 19.3671C0.104967 19.2815 0 19.1097 0 18.9222V14.1461V0.5ZM1 1V14.1461V17.947L6.85322 13.74C6.93825 13.6789 7.04032 13.6461 7.14504 13.6461H22.516V1H1ZM18.2398 5.77612H4.59375V4.77612H18.2398V5.77612ZM4.59375 9.87H18.2398V8.87H4.59375V9.87Z" fill="black"/>
</svg>
