<svg width="11" height="11" viewBox="0 0 11 11" fill="none" xmlns="http://www.w3.org/2000/svg">
<path d="M8.47326 0.847223L9.16431 0.847223C9.71659 0.847223 10.1643 1.29494 10.1643 1.84722L10.1643 4.97526C10.1643 5.52755 9.71659 5.97526 9.16431 5.97526L8.47326 5.97526M8.47326 0.847223L8.47326 5.97526M8.47326 0.847223L2.47135 0.847223C2.02111 0.847223 1.6264 1.1481 1.50709 1.58224L0.647496 4.71028C0.472562 5.34686 0.951574 5.97526 1.61175 5.97526L2.7033 5.97526C3.34749 5.97526 3.82362 6.57542 3.67709 7.20272L3.21408 9.18493C3.15422 9.44122 3.22613 9.71048 3.40581 9.90279V9.90279C3.71072 10.2291 4.2255 10.2374 4.54076 9.92109L8.47326 5.97526" stroke="black" stroke-width="0.9" stroke-linecap="round" stroke-linejoin="round"/>
</svg>
