<svg width="36" height="35" viewBox="0 0 36 35" fill="none" xmlns="http://www.w3.org/2000/svg">
<path fill-rule="evenodd" clip-rule="evenodd" d="M19.4529 10.0292C19.6056 9.96634 19.7796 10.007 19.8918 10.1317L25.8918 16.7984C26.0299 16.9518 26.0366 17.1885 25.9073 17.3501L19.9073 24.8501C19.7995 24.9848 19.6222 25.0348 19.4639 24.9751C19.3055 24.9154 19.2 24.7587 19.2 24.5833V19.9699C19.149 19.9666 19.0932 19.9631 19.0332 19.9597C18.7005 19.941 18.2375 19.9236 17.7168 19.929C16.6614 19.94 15.4214 20.0449 14.5409 20.39C13.6343 20.7452 12.6818 21.5309 11.9361 22.2596C11.5682 22.6191 11.2599 22.9556 11.0437 23.202C10.9357 23.325 10.8511 23.4253 10.7938 23.4943C10.7651 23.5288 10.7434 23.5554 10.7289 23.5732L10.7129 23.593L10.7092 23.5977L10.7084 23.5987C10.5812 23.759 10.36 23.7971 10.19 23.6879C10.0201 23.5787 9.9535 23.3557 10.034 23.1654L10.4001 23.3333C10.034 23.1654 10.0339 23.1655 10.034 23.1654L10.0345 23.1641L10.0357 23.1614L10.0399 23.1516L10.0557 23.1149C10.0696 23.0831 10.0899 23.0367 10.1165 22.9775C10.1697 22.8591 10.2478 22.6889 10.3484 22.4796C10.5497 22.0614 10.8419 21.4855 11.2066 20.8538C11.9289 19.6025 12.9622 18.0845 14.163 17.1644C15.0822 16.4601 16.4219 15.8192 17.5068 15.3603C18.0541 15.1289 18.5456 14.9401 18.9003 14.8091C19.0154 14.7666 19.1162 14.7301 19.2 14.7002V10.4167C19.2 10.2457 19.3003 10.0921 19.4529 10.0292ZM19.7227 15.3966L19.7208 15.3972L19.7139 15.3996L19.6859 15.4091C19.6611 15.4176 19.624 15.4304 19.5761 15.4472C19.4802 15.4809 19.3407 15.5306 19.1676 15.5945C18.8213 15.7224 18.3414 15.9068 17.8077 16.1325C16.7308 16.5879 15.4706 17.197 14.6371 17.8356C13.6302 18.6072 12.7131 19.895 12.016 21.0715C12.6807 20.4916 13.4663 19.9207 14.2592 19.61C15.2793 19.2102 16.6393 19.1068 17.7088 19.0957C18.2505 19.0901 18.7311 19.1081 19.0764 19.1276C19.2493 19.1374 19.3886 19.1475 19.4852 19.1552C19.5335 19.1591 19.5712 19.1624 19.597 19.1647L19.6268 19.1675L19.6348 19.1682L19.6379 19.1685C19.638 19.1685 19.638 19.1685 19.6 19.5833L19.6379 19.1685C19.8432 19.1889 20 19.3685 20 19.5833V23.4325L25.0663 17.0996L20 11.4703V15C20 15.1809 19.888 15.3411 19.7227 15.3966Z" fill="black"/>
</svg>
