<svg width="37" height="33" viewBox="0 0 37 33" fill="none" xmlns="http://www.w3.org/2000/svg">
<path fill-rule="evenodd" clip-rule="evenodd" d="M25.5217 11.0833H11.4783C11.2742 11.0833 11.1087 11.245 11.1087 11.4444V21.5556C11.1087 21.755 11.2742 21.9167 11.4783 21.9167H25.5217C25.7258 21.9167 25.8913 21.755 25.8913 21.5556V11.4444C25.8913 11.245 25.7258 11.0833 25.5217 11.0833ZM11.4783 10C10.6618 10 10 10.6467 10 11.4444V21.5556C10 22.3533 10.6618 23 11.4783 23H25.5217C26.3382 23 27 22.3533 27 21.5556V11.4444C27 10.6467 26.3382 10 25.5217 10H11.4783ZM24.0435 19.9306L12.9565 19.9306V18.8472L24.0435 18.8472V19.9306ZM12.9565 17.0417L24.0435 17.0417V15.9583L12.9565 15.9583V17.0417Z" fill="black"/>
</svg>
