<svg width="35" height="35" viewBox="0 0 35 35" fill="none" xmlns="http://www.w3.org/2000/svg">
<path d="M22.4286 10L24 10C24.5523 10 25 10.4477 25 11L25 16.9687C25 17.521 24.5523 17.9687 24 17.9687L22.4286 17.9687M22.4286 10L22.4286 17.9687M22.4286 10L12.9095 10C12.4572 10 12.0612 10.3036 11.9438 10.7403L10.3387 16.7091C10.1679 17.3444 10.6465 17.9687 11.3044 17.9687L14.3171 17.9687C14.9593 17.9687 15.435 18.5655 15.2919 19.1916L14.4025 23.0829C14.3294 23.4028 14.4179 23.7383 14.6393 23.9805L14.8569 24.2184C15.2447 24.6426 15.9095 24.6534 16.3108 24.2419L22.4286 17.9687" stroke="black" stroke-width="0.9" stroke-linecap="round" stroke-linejoin="round"/>
</svg>
