<svg width="38" height="38" viewBox="0 0 38 38" fill="none" xmlns="http://www.w3.org/2000/svg">
<path d="M24.4928 20.0313L17.6079 27.091C17.0059 27.7082 16.0088 27.6922 15.427 27.0559L15.038 26.6304C14.7058 26.2671 14.5731 25.7639 14.6828 25.284L15.7436 20.6427C15.8152 20.3297 15.5773 20.0313 15.2562 20.0313L11.5007 20.0313C10.5139 20.0313 9.79591 19.0947 10.0522 18.1418L11.9429 11.1105C12.1191 10.4554 12.7131 10 13.3915 10L26.1963 10C27.0247 10 27.6963 10.6716 27.6963 11.5L27.6963 18.5313C27.6963 19.3597 27.0247 20.0313 26.1963 20.0313L24.4928 20.0313Z" fill="black"/>
</svg>
