<svg width="25" height="24" viewBox="0 0 25 24" fill="none" xmlns="http://www.w3.org/2000/svg">
<circle cx="12.3428" cy="12" r="12" fill="#404040"/>
<path fill-rule="evenodd" clip-rule="evenodd" d="M14.7549 17.1514H9.23926V18.2779H10.7317L11.2256 18.8767C11.6256 19.3617 12.3685 19.3617 12.7685 18.8767L13.2623 18.2779H14.7549V17.1514Z" fill="#C4C4C4"/>
<path d="M16.9027 7.70259C16.5317 7.06 16.0378 6.49679 15.4491 6.04509C14.8605 5.59339 14.1886 5.26207 13.4719 5.07003C12.7552 4.87799 12.0077 4.82899 11.272 4.92584C10.5364 5.02269 9.82704 5.26349 9.18446 5.63448C8.54188 6.00548 7.97866 6.49941 7.52696 7.08807C7.07527 7.67673 6.74394 8.34859 6.5519 9.0653C6.35986 9.78201 6.31086 10.5295 6.40771 11.2652C6.50456 12.0008 6.74536 12.7102 7.11635 13.3528L12.0095 10.5277L16.9027 7.70259Z" fill="white"/>
<path fill-rule="evenodd" clip-rule="evenodd" d="M9.23948 15.4523C8.36364 14.9596 7.62718 14.2378 7.11621 13.3527L12.0094 10.5277L16.9026 7.70258C17.6518 9.00033 17.8549 10.5426 17.467 11.99C17.0792 13.4375 16.1322 14.6716 14.8345 15.4208C14.8081 15.4361 14.7817 15.4511 14.7551 15.4658V16.4134H9.23948V15.4523Z" fill="#ECECEC"/>
<path fill-rule="evenodd" clip-rule="evenodd" d="M13.3919 11.3023C13.7095 11.2294 13.9464 10.945 13.9464 10.6053C13.9464 10.2103 13.6262 9.89014 13.2312 9.89014C12.8363 9.89014 12.5161 10.2103 12.5161 10.6053C12.5161 10.6078 12.5161 10.6103 12.5162 10.6128H12.5161V16.5386H13.3919V11.3023Z" fill="#404040"/>
<path fill-rule="evenodd" clip-rule="evenodd" d="M10.593 11.3023C10.2754 11.2294 10.0385 10.945 10.0385 10.6053C10.0385 10.2103 10.3587 9.89014 10.7536 9.89014C11.1486 9.89014 11.4688 10.2103 11.4688 10.6053C11.4688 10.6078 11.4687 10.6103 11.4687 10.6128H11.4688V16.5386H10.593V11.3023Z" fill="#404040"/>
</svg>
