<svg width="25" height="25" viewBox="0 0 25 25" fill="none" xmlns="http://www.w3.org/2000/svg">
<circle cx="12.3428" cy="12.9468" r="12" fill="#404040"/>
<path fill-rule="evenodd" clip-rule="evenodd" d="M15.8087 7.85742L12.3804 9.95532V18.1426L19.186 13.8955V9.95532L15.8087 7.85742ZM17.514 11.4871C17.514 11.9013 17.1782 12.2371 16.764 12.2371C16.3498 12.2371 16.014 11.9013 16.014 11.4871C16.014 11.0728 16.3498 10.7371 16.764 10.7371C17.1782 10.7371 17.514 11.0728 17.514 11.4871ZM15.0331 13.2461C15.4474 13.2461 15.7831 12.9103 15.7831 12.4961C15.7831 12.0819 15.4474 11.7461 15.0331 11.7461C14.6189 11.7461 14.2831 12.0819 14.2831 12.4961C14.2831 12.9103 14.6189 13.2461 15.0331 13.2461Z" fill="#C4C4C4"/>
<path fill-rule="evenodd" clip-rule="evenodd" d="M12.3051 9.95532L8.87678 7.85742L5.49951 9.95532V13.8955L12.3051 18.1426V9.95532ZM8.48929 13.3369V12.4408L7.59326 12.4341L7.60074 11.4341L8.48929 11.4407V10.5522H9.48929V11.4482L10.3853 11.4549L10.3778 12.4549L9.48929 12.4482V13.3369H8.48929Z" fill="white"/>
</svg>
