<svg width="102" height="36" viewBox="0 0 102 36" fill="none" xmlns="http://www.w3.org/2000/svg">
<path d="M54.8511 21.544V19.178H58.8691V18.254H51.1411V16.224H58.5751V12.402H49.9791V13.34H57.4551V15.3H50.0071V19.178H53.6891V21.544H48.5791V22.482H59.9891V21.544H54.8511ZM69.48 14.068C69.48 15.622 69.48 17.498 68.976 20.06L70.124 20.186C70.614 17.47 70.614 15.664 70.614 14.068V12.808H62.004V13.746H69.48V14.068ZM60.786 21.25V22.202H72.14V21.25H60.786ZM83.2549 11.492H82.1069V20.662H83.2549V11.492ZM74.3649 15.44C74.3649 14.222 75.2889 13.354 76.5069 13.354C77.7529 13.354 78.6769 14.222 78.6769 15.44C78.6769 16.686 77.7529 17.554 76.5069 17.554C75.2889 17.554 74.3649 16.686 74.3649 15.44ZM79.7969 15.44C79.7969 13.634 78.3829 12.36 76.5069 12.36C74.6449 12.36 73.2449 13.634 73.2449 15.44C73.2449 17.26 74.6449 18.548 76.5069 18.548C78.3829 18.548 79.7969 17.26 79.7969 15.44ZM76.3249 22.818V19.724H75.1769V23.756H83.6329V22.818H76.3249Z" fill="#065FD4"/>
<rect x="0.5" y="0.5" width="101" height="35" rx="2.5" stroke="#065FD4"/>
<circle cx="27.8511" cy="18" r="9.5" stroke="#065FD4"/>
<circle cx="27.8511" cy="15" r="3.5" stroke="#065FD4"/>
<mask id="mask0_1_1154" style="mask-type:alpha" maskUnits="userSpaceOnUse" x="17" y="8" width="21" height="20">
<circle cx="27.8511" cy="18" r="10" fill="#C4C4C4"/>
</mask>
<g mask="url(#mask0_1_1154)">
<circle cx="27.8511" cy="30" r="10.5" stroke="#065FD4"/>
</g>
</svg>
