<svg width="25" height="24" viewBox="0 0 25 24" fill="none" xmlns="http://www.w3.org/2000/svg">
<circle cx="12.3428" cy="12" r="12" fill="#404040"/>
<path fill-rule="evenodd" clip-rule="evenodd" d="M15.8428 7.80415L17.3428 6.948V8.33646V9.64835V14.4915H17.3394C17.3416 14.5285 17.3428 14.5657 17.3428 14.6032C17.3428 15.5989 16.5356 16.406 15.54 16.406C14.5443 16.406 13.7372 15.5989 13.7372 14.6032C13.7372 13.6076 14.5443 12.8004 15.54 12.8004C15.6432 12.8004 15.7443 12.8091 15.8428 12.8257V10.4921L9.34277 14.1484V12.8365L15.8428 9.18021V7.80415Z" fill="#ECECEC"/>
<path fill-rule="evenodd" clip-rule="evenodd" d="M9.3429 9.44873L17.3429 4.94873V6.94873L10.8429 10.605V17.0596H10.8331C10.8396 17.1216 10.8429 17.1846 10.8429 17.2483C10.8429 18.244 10.0357 19.0511 9.04009 19.0511C8.04444 19.0511 7.2373 18.244 7.2373 17.2483C7.2373 16.2527 8.04444 15.4456 9.04009 15.4456C9.14328 15.4456 9.24445 15.4542 9.3429 15.4709V11.4487V10.0596V9.44873Z" fill="white"/>
</svg>
