<svg width="25" height="24" viewBox="0 0 25 24" fill="none" xmlns="http://www.w3.org/2000/svg">
<circle cx="12.3208" cy="12" r="12" fill="#404040"/>
<path fill-rule="evenodd" clip-rule="evenodd" d="M19.3121 6.33783H5.32959V19.1423H14.1339H19.3121V6.33783ZM14.1339 19.1423L19.31 15.9079L19.3101 19.1422L14.1339 19.1423ZM18.3672 7.40497H6.46326V9.50567H18.3672V7.40497ZM14.2325 10.9496H18.3339V11.7398H14.2325V10.9496ZM18.3339 12.7397H14.2325V13.5298H18.3339V12.7397ZM14.2325 14.5297H18.3339V15.3199H14.2325V14.5297Z" fill="white"/>
<path fill-rule="evenodd" clip-rule="evenodd" d="M5.33699 6.32961L5.33691 4.70404L7.09198 6.04895L8.84705 4.70404L10.5949 6.04343L12.3428 4.70404L14.0934 6.04554L15.844 4.70404L17.5779 6.03275L19.3118 4.70404L19.3118 6.32961H17.9653H17.1905H14.4641H13.7227H10.9684H10.2215H7.45823H6.72573H5.33699Z" fill="white"/>
<path d="M14.134 19.1423L14.1339 15.908L19.3101 15.9079L14.134 19.1423Z" fill="#ECECEC"/>
<rect x="6.43994" y="10.8676" width="6.73804" height="6.20625" fill="#ECECEC"/>
</svg>
