<svg width="25" height="25" viewBox="0 0 25 25" fill="none" xmlns="http://www.w3.org/2000/svg">
<circle cx="12.3428" cy="12.9766" r="12" fill="#404040"/>
<path d="M16.0474 10.9706C16.2174 11.1859 16.5654 12.0718 16.5654 12.9151C16.5654 13.7584 16.2174 14.5634 16.0474 14.9828" stroke="#ECECEC" stroke-width="1.5"/>
<path d="M8.67578 10.9706C8.50577 11.1859 8.15772 12.0718 8.15776 12.9151C8.15779 13.7584 8.50579 14.5634 8.67578 14.9828" stroke="white" stroke-width="1.5"/>
<path d="M18.354 10.0239C18.524 10.3407 18.8721 11.6446 18.872 12.8859C18.872 14.1272 18.524 15.3121 18.354 15.9294" stroke="#ECECEC" stroke-width="1.5"/>
<path d="M6.36865 10.0239C6.19864 10.3407 5.8506 11.6446 5.85063 12.8859C5.85066 14.1272 6.19866 15.3121 6.36865 15.9294" stroke="white" stroke-width="1.5"/>
<path d="M14.6386 11.6744C14.4646 11.3729 14.2328 11.1086 13.9566 10.8967C13.6804 10.6847 13.3651 10.5293 13.0288 10.4392C12.6925 10.349 12.3417 10.3261 11.9966 10.3715C11.6514 10.4169 11.3185 10.5299 11.017 10.704C10.7155 10.8781 10.4512 11.1099 10.2393 11.3861C10.0273 11.6623 9.87185 11.9775 9.78174 12.3138C9.69163 12.6501 9.66864 13.0009 9.71409 13.3461C9.75953 13.6913 9.87252 14.0241 10.0466 14.3256L12.3426 13L14.6386 11.6744Z" fill="white"/>
<path d="M10.0466 14.3256C10.3982 14.9346 10.9772 15.3789 11.6564 15.5609C12.3356 15.7429 13.0593 15.6476 13.6682 15.296C14.2772 14.9445 14.7215 14.3654 14.9035 13.6862C15.0855 13.007 14.9902 12.2834 14.6386 11.6744L12.3426 13L10.0466 14.3256Z" fill="#ECECEC"/>
</svg>
