<svg width="20" height="20" viewBox="0 0 20 20" fill="none" xmlns="http://www.w3.org/2000/svg">
<circle cx="10" cy="10" r="9.5" stroke="black"/>
<path d="M9.22656 12.5322C9.22201 12.3682 9.21973 12.2451 9.21973 12.1631C9.21973 11.68 9.28809 11.263 9.4248 10.9121C9.52507 10.6478 9.68685 10.3812 9.91016 10.1123C10.0742 9.91634 10.3682 9.63151 10.792 9.25781C11.2204 8.87956 11.4984 8.57878 11.626 8.35547C11.7536 8.13216 11.8174 7.88835 11.8174 7.62402C11.8174 7.14551 11.6305 6.72624 11.2568 6.36621C10.8831 6.00163 10.4251 5.81934 9.88281 5.81934C9.35872 5.81934 8.92122 5.9834 8.57031 6.31152C8.2194 6.63965 7.98926 7.15234 7.87988 7.84961L6.61523 7.69922C6.72917 6.76497 7.06641 6.04948 7.62695 5.55273C8.19206 5.05599 8.93717 4.80762 9.8623 4.80762C10.8421 4.80762 11.6237 5.07422 12.207 5.60742C12.7904 6.14062 13.082 6.78548 13.082 7.54199C13.082 7.97949 12.9795 8.38281 12.7744 8.75195C12.5693 9.12109 12.1683 9.56999 11.5713 10.0986C11.1702 10.4541 10.9082 10.7161 10.7852 10.8848C10.6621 11.0534 10.571 11.2471 10.5117 11.4658C10.4525 11.6846 10.4183 12.04 10.4092 12.5322H9.22656ZM9.15137 15V13.5986H10.5527V15H9.15137Z" fill="black"/>
</svg>
