<svg width="20" height="20" viewBox="0 0 20 20" fill="none" xmlns="http://www.w3.org/2000/svg">
<circle cx="10" cy="10" r="3.5" stroke="black"/>
<g clip-path="url(#clip0_1_1620)">
<path d="M16.8153 10C16.818 9.26635 17.0623 8.55208 17.5135 7.95813C17.9647 7.36418 18.6 6.92057 19.3297 6.69C18.9721 5.77907 18.4704 4.92583 17.842 4.16C17.2846 4.41414 16.6688 4.52895 16.0522 4.49366C15.4356 4.45838 14.8386 4.27415 14.317 3.95827C13.7955 3.64239 13.3666 3.20521 13.0705 2.68776C12.7745 2.17032 12.621 1.58956 12.6246 1C12.6195 0.950119 12.6195 0.899881 12.6246 0.85C11.7715 0.623569 10.8908 0.505881 10.0054 0.5C9.46432 0.501022 8.9244 0.547872 8.392 0.64C8.4023 0.759799 8.4023 0.880202 8.392 1C8.3901 1.64887 8.19819 2.2843 7.83792 2.83456C7.47765 3.38481 6.96339 3.82797 6.3532 4.11398C5.743 4.4 5.06118 4.51748 4.38473 4.45316C3.70828 4.38884 3.06414 4.14529 2.52505 3.75C1.73123 4.61691 1.10671 5.61267 0.681152 6.69C1.41365 6.91694 2.05206 7.35945 2.50482 7.95408C2.95758 8.54871 3.20144 9.26492 3.20144 10C3.20144 10.7351 2.95758 11.4513 2.50482 12.0459C2.05206 12.6405 1.41365 13.0831 0.681152 13.31C1.10671 14.3873 1.73123 15.3831 2.52505 16.25C3.06377 15.8429 3.71204 15.5894 4.39514 15.5187C5.07824 15.448 5.76836 15.5631 6.38596 15.8505C7.00355 16.1379 7.52349 16.5861 7.88583 17.1433C8.24816 17.7005 8.43815 18.3442 8.4339 19C8.44421 19.1198 8.44421 19.2402 8.4339 19.36C9.50062 19.5467 10.594 19.5467 11.6607 19.36C11.6504 19.2402 11.6504 19.1198 11.6607 19C11.6565 18.3442 11.8465 17.7005 12.2088 17.1433C12.5711 16.5861 13.0911 16.1379 13.7087 15.8505C14.3263 15.5631 15.0164 15.448 15.6995 15.5187C16.3826 15.5894 17.0309 15.8429 17.5696 16.25C18.3634 15.3831 18.9879 14.3873 19.4135 13.31C18.6682 13.0933 18.0145 12.6557 17.5473 12.0605C17.0802 11.4654 16.8237 10.7436 16.8153 10V10Z" stroke="black"/>
</g>
<defs>
<clipPath id="clip0_1_1620">
<rect width="20" height="20" fill="white"/>
</clipPath>
</defs>
</svg>
