<svg width="25" height="25" viewBox="0 0 25 25" fill="none" xmlns="http://www.w3.org/2000/svg">
<circle cx="12.0332" cy="12.9468" r="12" fill="#404040"/>
<path d="M7.92358 9.49561H5.44092V10.6974C5.44092 11.0944 5.54596 11.4842 5.74539 11.8275V11.8275C6.14802 12.5204 6.88894 12.9469 7.69039 12.9469H8.42018" stroke="#F9F9F9" stroke-width="1.5"/>
<path d="M16.2966 9.49561H18.7793V10.6974C18.7793 11.0944 18.6743 11.4842 18.4748 11.8275V11.8275C18.0722 12.5204 17.3313 12.9469 16.5298 12.9469H15.8" stroke="#ECECEC" stroke-width="1.5"/>
<path d="M7.60645 6.93799H12.0095V16.0112C9.57774 16.0112 7.60645 14.0399 7.60645 11.6082V6.93799Z" fill="#F9F9F9"/>
<path d="M16.4131 6.93799H12.0101V16.0112C14.4418 16.0112 16.4131 14.0399 16.4131 11.6082V6.93799Z" fill="#ECECEC"/>
<path d="M12.0334 15.625L14.7407 17.4883H9.32605L12.0334 15.625Z" fill="#ECECEC"/>
<rect x="9.34277" y="17.4827" width="5.39453" height="1.51737" fill="#F9F9F9"/>
</svg>
