<svg width="25" height="25" viewBox="0 0 25 25" fill="none" xmlns="http://www.w3.org/2000/svg">
<circle cx="12.3428" cy="12.0051" r="12" fill="#404040"/>
<path fill-rule="evenodd" clip-rule="evenodd" d="M5.2168 7.96436H12.3427V13.989L9.17395 16.0458L5.2168 16.0458V7.96436ZM9.25038 13.1841C10.0868 13.1841 10.7648 12.5061 10.7648 11.6697C10.7648 10.8333 10.0868 10.1553 9.25038 10.1553C8.41398 10.1553 7.73594 10.8333 7.73594 11.6697C7.73594 12.5061 8.41398 13.1841 9.25038 13.1841Z" fill="white"/>
<path fill-rule="evenodd" clip-rule="evenodd" d="M19.4688 7.96436H12.3429V13.989L15.5116 16.0458L19.4688 16.0458V7.96436ZM15.4352 13.1841C14.5988 13.1841 13.9207 12.5061 13.9207 11.6697C13.9207 10.8333 14.5988 10.1553 15.4352 10.1553C16.2716 10.1553 16.9496 10.8333 16.9496 11.6697C16.9496 12.5061 16.2716 13.1841 15.4352 13.1841Z" fill="#ECECEC"/>
</svg>
