<svg width="23" height="33" viewBox="0 0 23 33" fill="none" xmlns="http://www.w3.org/2000/svg">
<path fill-rule="evenodd" clip-rule="evenodd" d="M13 11.3C13 12.018 12.3284 12.6 11.5 12.6C10.6716 12.6 10 12.018 10 11.3C10 10.582 10.6716 10 11.5 10C12.3284 10 13 10.582 13 11.3ZM13 16.5C13 17.218 12.3284 17.8 11.5 17.8C10.6716 17.8 10 17.218 10 16.5C10 15.782 10.6716 15.2 11.5 15.2C12.3284 15.2 13 15.782 13 16.5ZM11.5 23C12.3284 23 13 22.418 13 21.7C13 20.982 12.3284 20.4 11.5 20.4C10.6716 20.4 10 20.982 10 21.7C10 22.418 10.6716 23 11.5 23Z" fill="black"/>
</svg>
