<svg width="87" height="37" viewBox="0 0 87 37" fill="none" xmlns="http://www.w3.org/2000/svg">
<path d="M44.7231 20.8521V18.8241H48.1671V18.0321H41.5431V16.2921H47.9151V13.0161H40.5471V13.8201H46.9551V15.5001H40.5711V18.8241H43.7271V20.8521H39.3471V21.6561H49.1271V20.8521H44.7231ZM57.2622 14.4441C57.2622 15.7761 57.2622 17.3841 56.8302 19.5801L57.8142 19.6881C58.2342 17.3601 58.2342 15.8121 58.2342 14.4441V13.3641H50.8542V14.1681H57.2622V14.4441ZM49.8102 20.6001V21.4161H59.5422V20.6001H49.8102ZM69.0693 12.2361H68.0853V20.0961H69.0693V12.2361ZM61.4493 15.6201C61.4493 14.5761 62.2413 13.8321 63.2853 13.8321C64.3533 13.8321 65.1453 14.5761 65.1453 15.6201C65.1453 16.6881 64.3533 17.4321 63.2853 17.4321C62.2413 17.4321 61.4493 16.6881 61.4493 15.6201ZM66.1053 15.6201C66.1053 14.0721 64.8933 12.9801 63.2853 12.9801C61.6893 12.9801 60.4893 14.0721 60.4893 15.6201C60.4893 17.1801 61.6893 18.2841 63.2853 18.2841C64.8933 18.2841 66.1053 17.1801 66.1053 15.6201ZM63.1293 21.9441V19.2921H62.1453V22.7481H69.3933V21.9441H63.1293Z" fill="black"/>
<rect x="0.5" y="0.5" width="86" height="36" rx="2.5" stroke="black"/>
<path d="M30.9682 18.5C30.9682 23.3322 27.0485 27.25 22.2128 27.25C17.3771 27.25 13.4575 23.3322 13.4575 18.5C13.4575 13.6678 17.3771 9.75 22.2128 9.75C27.0485 9.75 30.9682 13.6678 30.9682 18.5Z" stroke="black"/>
<path d="M25.4148 15.7249C25.4148 17.4919 23.9814 18.9249 22.2126 18.9249C20.4439 18.9249 19.0105 17.4919 19.0105 15.7249C19.0105 13.9579 20.4439 12.5249 22.2126 12.5249C23.9814 12.5249 25.4148 13.9579 25.4148 15.7249Z" stroke="black"/>
<mask id="mask0_1_750" style="mask-type:alpha" maskUnits="userSpaceOnUse" x="12" y="9" width="20" height="19">
<ellipse cx="22.2128" cy="18.5" rx="9.25532" ry="9.25" fill="#C4C4C4"/>
</mask>
<g mask="url(#mask0_1_750)">
<path d="M31.8934 29.5998C31.8934 34.9429 27.5594 39.2748 22.2126 39.2748C16.8657 39.2748 12.5317 34.9429 12.5317 29.5998C12.5317 24.2567 16.8657 19.9248 22.2126 19.9248C27.5594 19.9248 31.8934 24.2567 31.8934 29.5998Z" stroke="black"/>
</g>
</svg>
