<svg width="89" height="26" viewBox="0 0 89 26" fill="none" xmlns="http://www.w3.org/2000/svg">
<path d="M82.3735 4.05371L81.8521 4.5957V6.03711H81.2896V1.77148H81.8521V3.88086L83.7476 1.77148H84.4272L82.7485 3.65527L84.5591 6.03711H83.8853L82.3735 4.05371ZM86.6157 4.31152H85.6138V6.03711H85.0483V1.77148H86.4604C86.9409 1.77148 87.3101 1.88086 87.5679 2.09961C87.8276 2.31836 87.9575 2.63672 87.9575 3.05469C87.9575 3.32031 87.8853 3.55176 87.7407 3.74902C87.5981 3.94629 87.3989 4.09375 87.1431 4.19141L88.145 6.00195V6.03711H87.5415L86.6157 4.31152ZM85.6138 3.85156H86.478C86.7573 3.85156 86.979 3.7793 87.1431 3.63477C87.3091 3.49023 87.3921 3.29688 87.3921 3.05469C87.3921 2.79102 87.313 2.58887 87.1548 2.44824C86.9985 2.30762 86.772 2.23633 86.4751 2.23438H85.6138V3.85156Z" fill="#959595"/>
<path d="M24.2098 10.1879C24.0692 9.62876 23.7931 9.11895 23.4092 8.70973C23.0253 8.30051 22.5472 8.0063 22.0229 7.85667C20.0955 7.30469 12.363 7.30469 12.363 7.30469C12.363 7.30469 4.63174 7.30469 2.70297 7.85667C2.17894 8.00652 1.70112 8.30083 1.31749 8.71003C0.933869 9.11924 0.657955 9.62893 0.517474 10.1879C-1.21773e-06 12.2453 0 16.5364 0 16.5364C0 16.5364 -1.21773e-06 20.8275 0.517474 22.8849C0.657955 23.4439 0.933869 23.9536 1.31749 24.3628C1.70112 24.772 2.17894 25.0663 2.70297 25.2161C4.63174 25.7638 12.363 25.7638 12.363 25.7638C12.363 25.7638 20.0955 25.7638 22.0229 25.2118C22.5472 25.0622 23.0253 24.768 23.4092 24.3588C23.7931 23.9496 24.0692 23.4398 24.2098 22.8806C24.7259 20.8232 24.7259 16.5321 24.7259 16.5321C24.7259 16.5321 24.7259 12.241 24.2098 10.1836" fill="#ED2123"/>
<path d="M9.88989 20.4918L16.3147 16.5362L9.88989 12.5791V20.4918Z" fill="white"/>
<path d="M35.89 24.1006C35.4007 23.7498 35.0531 23.2031 34.847 22.4604C34.6409 21.7178 34.5378 20.7304 34.5378 19.4984V17.8209C34.5378 16.5783 34.6557 15.5786 34.8913 14.8216C35.127 14.0646 35.4953 13.5145 35.9962 13.1714C36.4971 12.8253 37.1543 12.6523 37.968 12.6523C38.7816 12.6523 39.4241 12.8282 39.8954 13.18C40.3775 13.5327 40.731 14.0827 40.9559 14.8302C41.1808 15.5776 41.2928 16.5745 41.2919 17.8209V19.4984C41.2919 20.7314 41.183 21.7216 40.9653 22.469C40.7475 23.2165 40.3936 23.7637 39.9035 24.1106C39.4142 24.4557 38.7511 24.6287 37.9142 24.6296C37.054 24.6296 36.3792 24.4533 35.89 24.1006ZM38.6293 22.2898C38.7646 21.9132 38.8322 21.2972 38.8322 20.4417V16.8402C38.8322 16.0106 38.7646 15.4037 38.6293 15.0194C38.4948 14.6366 38.2556 14.4459 37.9129 14.4459C37.5701 14.4459 37.3497 14.638 37.2153 15.0194C37.0809 15.4008 37.0163 16.0144 37.0163 16.8402V20.4417C37.0163 21.302 37.0813 21.918 37.2112 22.2898C37.3456 22.6683 37.5768 22.8633 37.9182 22.8633C38.2596 22.8633 38.4989 22.6755 38.6346 22.2898" fill="black"/>
<path d="M73.4414 19.5272V20.1122C73.4336 20.6693 73.4542 21.2264 73.5033 21.781C73.5173 22.0711 73.6061 22.3514 73.76 22.5911C73.8349 22.6802 73.9281 22.7496 74.0323 22.7939C74.1365 22.8381 74.249 22.8561 74.3608 22.8463C74.7264 22.8463 74.9777 22.7029 75.1121 22.3932C75.2465 22.0835 75.3218 21.5889 75.3339 20.885L77.4374 21.0169C77.451 21.1545 77.4568 21.2928 77.4549 21.4312C77.4549 22.5008 77.1811 23.2993 76.6336 23.827C76.0861 24.3546 75.3124 24.6179 74.3124 24.6169C73.109 24.6169 72.2662 24.2145 71.7842 23.4097C71.3021 22.6049 71.0601 21.36 71.0583 19.6749V17.6591C71.0583 15.9243 71.3088 14.6574 71.8097 13.8583C72.3106 13.0592 73.1681 12.6602 74.3823 12.6611C75.2201 12.6611 75.8626 12.8246 76.3097 13.1515C76.7568 13.4784 77.0705 13.9878 77.2506 14.6798C77.4298 15.3709 77.5194 16.3267 77.5194 17.5473V19.5272H73.4414ZM73.7506 14.6612C73.6022 14.8998 73.5168 15.1766 73.5033 15.4626C73.454 16.0235 73.4334 16.5868 73.4414 17.1501V17.9802H75.2277V17.1501C75.2358 16.5866 75.212 16.0231 75.1565 15.4626C75.1094 15.0784 75.0221 14.8088 74.9011 14.6511C74.8281 14.5681 74.7384 14.5037 74.6388 14.4627C74.5392 14.4218 74.4322 14.4053 74.3258 14.4146C74.2186 14.4057 74.1109 14.4233 74.0112 14.4661C73.9114 14.5089 73.8222 14.5756 73.7506 14.6612Z" fill="black"/>
<path d="M29.9479 19.3122L27.1724 8.61667H29.5917L30.5649 13.4641C30.8122 14.6588 30.9945 15.6773 31.1119 16.5193H31.1831C31.2656 15.9143 31.4484 14.9021 31.7315 13.4827L32.7396 8.61523H35.159L32.3525 19.3122V24.4421H29.9479V19.3122Z" fill="black"/>
<path d="M49.1711 12.8794V24.4409H47.2611L47.0487 23.0273H46.995C46.4762 24.0959 45.6984 24.6302 44.6616 24.6302C43.9448 24.6302 43.4143 24.3783 43.0702 23.8746C42.7261 23.3709 42.5554 22.5852 42.5581 21.5176V12.8794H44.9977V21.367C44.9977 21.8817 45.0501 22.2502 45.1563 22.4695C45.2039 22.5748 45.2798 22.6625 45.3744 22.7215C45.4689 22.7805 45.5778 22.8081 45.6872 22.8007C45.9055 22.7982 46.1181 22.7258 46.2974 22.5928C46.4851 22.463 46.635 22.2798 46.7302 22.0638V12.8794H49.1711Z" fill="black"/>
<path d="M61.6869 12.8794V24.4409H59.777L59.5646 23.0273H59.5122C58.9925 24.0959 58.2143 24.6302 57.1775 24.6302C56.4607 24.6302 55.9302 24.3783 55.5861 23.8746C55.242 23.3709 55.0713 22.5852 55.074 21.5176V12.8794H57.5135V21.367C57.5135 21.8817 57.566 22.2502 57.6721 22.4695C57.7202 22.576 57.7972 22.6645 57.8931 22.7236C57.989 22.7827 58.0993 22.8095 58.2098 22.8007C58.4281 22.7982 58.6407 22.7258 58.82 22.5928C59.0077 22.463 59.1576 22.2798 59.2528 22.0638V12.8794H61.6869Z" fill="black"/>
<path d="M55.7998 10.7085H53.3778V24.4406H50.9907V10.7085H48.5686V8.61523H55.7998V10.7085Z" fill="black"/>
<path d="M69.7627 14.7243C69.6148 13.9951 69.376 13.4694 69.0463 13.1473C68.7165 12.8251 68.2627 12.6617 67.6847 12.6569C67.2378 12.6565 66.8009 12.7977 66.4294 13.0627C66.0457 13.3265 65.7345 13.694 65.5275 14.1279H65.5113V8.03174H63.1592V24.4407H65.1753L65.4226 23.3467H65.4764C65.6664 23.7382 65.9617 24.0603 66.3245 24.2715C66.7088 24.4987 67.1419 24.6153 67.5812 24.6098C68.4056 24.6098 69.0122 24.2046 69.4011 23.394C69.79 22.5835 69.9845 21.3185 69.9845 19.599V17.7638C69.9845 16.4697 69.9105 15.4574 69.7627 14.7272V14.7243ZM67.5275 19.4427C67.5371 20.1048 67.5048 20.7667 67.4307 21.4241C67.3644 21.902 67.2551 22.2413 67.1027 22.4421C67.0289 22.5404 66.9345 22.6189 66.8272 22.6714C66.7199 22.724 66.6025 22.749 66.4845 22.7446C66.2893 22.7462 66.0972 22.6938 65.9267 22.5926C65.751 22.4869 65.607 22.3304 65.5113 22.141V15.576C65.5829 15.2813 65.73 15.0138 65.9361 14.8032C66.1088 14.6151 66.3439 14.507 66.5906 14.5021C66.7033 14.497 66.8153 14.5229 66.9158 14.5774C67.0164 14.6319 67.102 14.7131 67.1646 14.8132C67.299 15.0197 67.3944 15.3695 67.4482 15.8599C67.5093 16.5556 67.5358 17.2543 67.5275 17.9531V19.4427Z" fill="black"/>
</svg>
