<svg width="43" height="42" viewBox="0 0 43 42" fill="none" xmlns="http://www.w3.org/2000/svg">
<mask id="path-1-inside-1_1_1356" fill="white">
<path fill-rule="evenodd" clip-rule="evenodd" d="M18.625 10H24.375V15.5H18.625V10ZM10.0007 10.0001H15.7507V15.5001H10.0007V10.0001ZM10 18.25H15.75V23.75H10V18.25ZM15.75 26.4999H10V31.9999H15.75V26.4999ZM32.9999 10H27.25V15.5H32.9999V10ZM18.625 18.25H24.375V23.75H18.625V18.25ZM32.9999 18.25H27.25V23.75H32.9999V18.25ZM18.625 26.5H24.375V32H18.625V26.5ZM32.9999 26.5H27.25V32H32.9999V26.5Z"/>
</mask>
<path fill-rule="evenodd" clip-rule="evenodd" d="M18.625 10H24.375V15.5H18.625V10ZM10.0007 10.0001H15.7507V15.5001H10.0007V10.0001ZM10 18.25H15.75V23.75H10V18.25ZM15.75 26.4999H10V31.9999H15.75V26.4999ZM32.9999 10H27.25V15.5H32.9999V10ZM18.625 18.25H24.375V23.75H18.625V18.25ZM32.9999 18.25H27.25V23.75H32.9999V18.25ZM18.625 26.5H24.375V32H18.625V26.5ZM32.9999 26.5H27.25V32H32.9999V26.5Z" fill="white"/>
<path d="M24.375 10H25.375V9H24.375V10ZM18.625 10V9H17.625V10H18.625ZM24.375 15.5V16.5H25.375V15.5H24.375ZM18.625 15.5H17.625V16.5H18.625V15.5ZM15.7507 10.0001H16.7507V9.00012H15.7507V10.0001ZM10.0007 10.0001V9.00012H9.00073V10.0001H10.0007ZM15.7507 15.5001V16.5001H16.7507V15.5001H15.7507ZM10.0007 15.5001H9.00073V16.5001H10.0007V15.5001ZM15.75 18.25H16.75V17.25H15.75V18.25ZM10 18.25V17.25H9V18.25H10ZM15.75 23.75V24.75H16.75V23.75H15.75ZM10 23.75H9V24.75H10V23.75ZM10 26.4999V25.4999H9V26.4999H10ZM15.75 26.4999H16.75V25.4999H15.75V26.4999ZM10 31.9999H9V32.9999H10V31.9999ZM15.75 31.9999V32.9999H16.75V31.9999H15.75ZM27.25 10V9H26.25V10H27.25ZM32.9999 10H33.9999V9H32.9999V10ZM27.25 15.5H26.25V16.5H27.25V15.5ZM32.9999 15.5V16.5H33.9999V15.5H32.9999ZM24.375 18.25H25.375V17.25H24.375V18.25ZM18.625 18.25V17.25H17.625V18.25H18.625ZM24.375 23.75V24.75H25.375V23.75H24.375ZM18.625 23.75H17.625V24.75H18.625V23.75ZM27.25 18.25V17.25H26.25V18.25H27.25ZM32.9999 18.25H33.9999V17.25H32.9999V18.25ZM27.25 23.75H26.25V24.75H27.25V23.75ZM32.9999 23.75V24.75H33.9999V23.75H32.9999ZM24.375 26.5H25.375V25.5H24.375V26.5ZM18.625 26.5V25.5H17.625V26.5H18.625ZM24.375 32V33H25.375V32H24.375ZM18.625 32H17.625V33H18.625V32ZM27.25 26.5V25.5H26.25V26.5H27.25ZM32.9999 26.5H33.9999V25.5H32.9999V26.5ZM27.25 32H26.25V33H27.25V32ZM32.9999 32V33H33.9999V32H32.9999ZM24.375 9H18.625V11H24.375V9ZM25.375 15.5V10H23.375V15.5H25.375ZM18.625 16.5H24.375V14.5H18.625V16.5ZM17.625 10V15.5H19.625V10H17.625ZM15.7507 9.00012H10.0007V11.0001H15.7507V9.00012ZM16.7507 15.5001V10.0001H14.7507V15.5001H16.7507ZM10.0007 16.5001H15.7507V14.5001H10.0007V16.5001ZM9.00073 10.0001V15.5001H11.0007V10.0001H9.00073ZM15.75 17.25H10V19.25H15.75V17.25ZM16.75 23.75V18.25H14.75V23.75H16.75ZM10 24.75H15.75V22.75H10V24.75ZM9 18.25V23.75H11V18.25H9ZM10 27.4999H15.75V25.4999H10V27.4999ZM11 31.9999V26.4999H9V31.9999H11ZM15.75 30.9999H10V32.9999H15.75V30.9999ZM14.75 26.4999V31.9999H16.75V26.4999H14.75ZM27.25 11H32.9999V9H27.25V11ZM28.25 15.5V10H26.25V15.5H28.25ZM32.9999 14.5H27.25V16.5H32.9999V14.5ZM31.9999 10V15.5H33.9999V10H31.9999ZM24.375 17.25H18.625V19.25H24.375V17.25ZM25.375 23.75V18.25H23.375V23.75H25.375ZM18.625 24.75H24.375V22.75H18.625V24.75ZM17.625 18.25V23.75H19.625V18.25H17.625ZM27.25 19.25H32.9999V17.25H27.25V19.25ZM28.25 23.75V18.25H26.25V23.75H28.25ZM32.9999 22.75H27.25V24.75H32.9999V22.75ZM31.9999 18.25V23.75H33.9999V18.25H31.9999ZM24.375 25.5H18.625V27.5H24.375V25.5ZM25.375 32V26.5H23.375V32H25.375ZM18.625 33H24.375V31H18.625V33ZM17.625 26.5V32H19.625V26.5H17.625ZM27.25 27.5H32.9999V25.5H27.25V27.5ZM28.25 32V26.5H26.25V32H28.25ZM32.9999 31H27.25V33H32.9999V31ZM31.9999 26.5V32H33.9999V26.5H31.9999Z" fill="#050505" mask="url(#path-1-inside-1_1_1356)"/>
</svg>
