<svg width="52" height="50" viewBox="0 0 52 50" fill="none" xmlns="http://www.w3.org/2000/svg">
<ellipse cx="26.1046" cy="24.866" rx="25.631" ry="24.7232" fill="#F9F9F9"/>
<path fill-rule="evenodd" clip-rule="evenodd" d="M22.8191 18.0325C22.8191 15.8547 24.5845 14.0893 26.7623 14.0893C28.9401 14.0893 30.7055 15.8547 30.7055 18.0325V25.3604C30.7055 27.5381 28.9401 29.3036 26.7623 29.3036C24.5845 29.3036 22.8191 27.5381 22.8191 25.3604V18.0325ZM20.1901 25.5C20.1901 29.0011 23.1325 31.8393 26.7622 31.8393C30.3918 31.8393 33.3342 29.0011 33.3342 25.5H34.6486C34.6486 29.3746 31.6456 32.5726 27.7622 33.0466V36.9107H25.7622V33.0466C21.8788 32.5726 18.8757 29.3746 18.8757 25.5H20.1901Z" fill="#050505"/>
</svg>
