<svg width="19" height="19" viewBox="0 0 19 19" fill="none" xmlns="http://www.w3.org/2000/svg">
<path fill-rule="evenodd" clip-rule="evenodd" d="M9.34284 0L10.618 2.20864H8.06768L9.34284 0ZM14.7414 9.32528C14.7414 12.3974 12.251 14.8878 9.17895 14.8878C6.10687 14.8878 3.61645 12.3974 3.61645 9.32528C3.61645 6.2532 6.10687 3.76278 9.17895 3.76278C12.251 3.76278 14.7414 6.2532 14.7414 9.32528ZM8.06771 16.6058L9.34287 18.8145L10.618 16.6058H8.06771ZM15.8315 2.57894L15.1578 5.09354L13.3169 3.25273L15.8315 2.57894ZM3.55799 13.763L2.88421 16.2776L5.3988 15.6038L3.55799 13.763ZM18.5048 9.1619L16.2961 10.4371V7.88674L18.5048 9.1619ZM2.22622 7.88677L0.0175781 9.16193L2.22622 10.4371V7.88677ZM2.58341 2.57924L5.09801 3.25303L3.25719 5.09384L2.58341 2.57924ZM13.3167 15.1533L15.8313 15.8271L15.1575 13.3125L13.3167 15.1533Z" fill="black"/>
</svg>
