<svg width="15" height="16" viewBox="0 0 15 16" fill="none" xmlns="http://www.w3.org/2000/svg">
<path fill-rule="evenodd" clip-rule="evenodd" d="M10.8 6C10.8 8.65097 8.65097 10.8 6 10.8C3.34903 10.8 1.2 8.65097 1.2 6C1.2 3.34903 3.34903 1.2 6 1.2C8.65097 1.2 10.8 3.34903 10.8 6ZM9.78217 10.6581C8.75009 11.4971 7.43377 12 6 12C2.68629 12 0 9.31371 0 6C0 2.68629 2.68629 0 6 0C9.31371 0 12 2.68629 12 6C12 7.44708 11.4877 8.77451 10.6346 9.81082L14.4484 14.1014C14.6686 14.3491 14.6463 14.7283 14.3986 14.9484C14.1509 15.1686 13.7717 15.1463 13.5516 14.8986L9.78217 10.6581Z" fill="black"/>
</svg>
